<?xml version="1.0" standalone="no"?>
<!DOCTYPE svg PUBLIC "-//W3C//DTD SVG 20010904//EN"
 "http://www.w3.org/TR/2001/REC-SVG-20010904/DTD/svg10.dtd">
<svg version="1.0" xmlns="http://www.w3.org/2000/svg"
 width="250.000000pt" height="250.000000pt" viewBox="0 0 250.000000 250.000000"
 preserveAspectRatio="xMidYMid meet">
<metadata>
Created by potrace 1.11, written by Peter Selinger 2001-2013
</metadata>
<g transform="translate(0.000000,250.000000) scale(0.100000,-0.100000)"
fill="#000000" stroke="none">
<path d="M239 2392 c-56 -37 -94 -75 -131 -131 l-28 -45 0 -966 0 -966 28 -45
c37 -56 75 -94 131 -131 l45 -28 966 0 966 0 45 28 c56 37 94 75 131 131 l28
45 0 966 0 966 -28 45 c-37 56 -75 94 -131 131 l-45 28 -966 0 -966 0 -45 -28z
m1391 -632 l0 -120 -245 0 -245 0 0 -130 0 -130 230 0 230 0 0 -120 0 -120
-230 0 -230 0 0 -145 0 -145 260 0 261 0 -3 -117 -3 -118 -402 -3 -403 -2 0
635 0 635 390 0 390 0 0 -120z"/>
</g>
</svg>
